<svg xmlns="http://www.w3.org/2000/svg" width="512" height="512">
  <style>
    rect.optional {
      fill: #99ff99;
      stroke: #669966;
      stroke-width: 16;
    }

    rect.complete {
      fill: #cccccc;
      stroke: #666666;
      stroke-width: 16;
    }

    rect.optional-box {
      fill: #ffffff;
      stroke: #669966;
      stroke-width: 8;
    }

    rect.ticked-box {
      fill: #ffffff;
      stroke: #666666;
      stroke-width: 8;
    }
  </style>

  <rect x="32"  y="32" width="448" height="128" rx="16" ry="16" class="complete" />
  <rect x="32" y="192" width="448" height="128" rx="16" ry="16" class="optional" />
  <rect x="32" y="352" width="448" height="128" rx="16" ry="16" class="complete" />

  <rect x="64" y="64" width="64" height="64" class="ticked-box" />
  <rect x="64" y="224" width="64" height="64" class="optional-box" />
  <rect x="64" y="384" width="64" height="64" class="ticked-box" />

  <path fill="#333333" stroke="none"
    d="M 100,128
       q 20,-48 52,-76
       q -32,12 -56,52
       l -14,-10
       a 4,4 0,0,0 -10,10
       l 28,24 z" />
  <path fill="#333333" stroke="none"
    d="M 100,448
       q 20,-48 52,-76
       q -32,12 -56,52
       l -14,-10
       a 4,4 0,0,0 -10,10
       l 28,24 z" />
</svg>
